<svg xmlns="http://www.w3.org/2000/svg" viewBox="0 0 512 512"><path fill="#010101" d="M443 270c-.3 35-10 66.8-29.6 95.8-2 3-2 4.4.7 7 23 22.5 46 45.4 68 67.7 14 13.6 11 38.4-9 47.3-10 4.6-22 2.2-31-6.6l-68-67.5c-2-2.7-4-3.5-7-1-18 12.6-38 21-60 25.7-12 2.5-24 4-36 3.7-5 0-7-3-5-8l20-47c1-2 3-3 6-4 14-2 27-7 40-14 32-19 51-47 55-83 6-47-12-85-51-111-25-16-52-21-82-16-37 7-65 28-82 61-3 6-6 8-12 7-14-1-28-2-43-4-5 0-7-3-5-8 12-33 32-59 59-80 35-26 74-38 118-34 56 5 99 31 131 77 27 40 23 92 23 92z"/><path fill="#020202" d="M223.7 308.2c-16 20.2-6 45 19.2 49 5 .8 10 1.4 15 2 3 .5 4 1.7 4 4.8v2c1 11.7-1 14.3-12 15.7-5 .6-10 1-15 2.3-19 5.2-27 25.3-18 42 3 6.3 8 11.3 12 17.2 2 3 2 5 0 7.5-1 .6-1 1.3-2 2-7 8.6-10 9-18 2.4-4-2-7-5-10-7-19-12-43-2-46 20l-2 17c-1 3-2 5-5 5h-1c-12 2-16 0-17-12-1-4-1-9-2-14-6-18-26-27-43-17-6 4-11 8-17 13-3 2-5 2-7 0-10-7-11-10-3-20 4-5 9-11 11-17 6-17-5-34-23-37-6-1-12-1-18-2-3 0-5-2-5-5v-2c-2-11 0-14 12-15 4 0 9-1 14-2 19-5 27-26 17-43-4-6-8-11-12-16-3-3-3-5 0-8l1-2c7-9 10-9 18-3 4 3 7 5 10 8 19 13 42 3 46-19 1-6 1-12 2-17 0-2 0-4 4-5h2c15-1 15 1 16 13 0 5 1 10 2 14 6 19 26 27 43 18 6-3 11-8 17-12 3-2 5-2 8 0 7 6 10 8 8 12l-6 9zM203 369.8c0-32.6-26.7-59-59.3-58.8-32.4 0-58.7 26.6-58.8 59 0 32.5 26 59 59 59 32 0 59-26.6 59-59.2z"/></svg>